<svg xmlns="http://www.w3.org/2000/svg" xmlns:xlink="http://www.w3.org/1999/xlink" width="500" zoomAndPan="magnify" viewBox="0 0 375 374.999991" height="500" preserveAspectRatio="xMidYMid meet" version="1.0"><defs><clipPath id="612e2ef0e0"><path d="M 113 123 L 334 123 L 334 250 L 113 250 Z M 113 123 " clip-rule="nonzero"/></clipPath><clipPath id="b0645db230"><path d="M 77.152344 356.425781 L -28.0625 70.679688 L 257.683594 -34.535156 L 362.894531 251.210938 Z M 77.152344 356.425781 " clip-rule="nonzero"/></clipPath><clipPath id="eff6c0fdf3"><path d="M 77.152344 356.425781 L -28.0625 70.679688 L 257.683594 -34.535156 L 362.894531 251.210938 Z M 77.152344 356.425781 " clip-rule="nonzero"/></clipPath><clipPath id="f4fbde7299"><path d="M 77.152344 356.425781 L -28.0625 70.679688 L 257.683594 -34.535156 L 362.894531 251.210938 Z M 77.152344 356.425781 " clip-rule="nonzero"/></clipPath><clipPath id="dc67df8cae"><path d="M 127.835938 123.992188 L 113.621094 154.777344 L 318.847656 249.546875 L 333.0625 218.761719 Z M 127.835938 123.992188 " clip-rule="nonzero"/></clipPath><linearGradient x1="5.644148" gradientTransform="matrix(-2.7615, -7.49988, 7.49988, -2.7615, 63.443946, 411.720085)" y1="14.644148" x2="33.355853" gradientUnits="userSpaceOnUse" y2="42.355853" id="07c614cc87"><stop stop-opacity="1" stop-color="rgb(63.899231%, 30.999756%, 15.299988%)" offset="0"/><stop stop-opacity="1" stop-color="rgb(63.899231%, 30.999756%, 15.299988%)" offset="0.25"/><stop stop-opacity="1" stop-color="rgb(63.899231%, 30.999756%, 15.299988%)" offset="0.375"/><stop stop-opacity="1" stop-color="rgb(63.899231%, 30.999756%, 15.299988%)" offset="0.40625"/><stop stop-opacity="1" stop-color="rgb(63.896179%, 30.996704%, 15.296936%)" offset="0.414062"/><stop stop-opacity="1" stop-color="rgb(63.554382%, 30.66864%, 15.068054%)" offset="0.417969"/><stop stop-opacity="1" stop-color="rgb(63.214111%, 30.343628%, 14.840698%)" offset="0.421875"/><stop stop-opacity="1" stop-color="rgb(62.87384%, 30.018616%, 14.611816%)" offset="0.425781"/><stop stop-opacity="1" stop-color="rgb(62.535095%, 29.693604%, 14.38446%)" offset="0.429687"/><stop stop-opacity="1" stop-color="rgb(62.194824%, 29.367065%, 14.157104%)" offset="0.433594"/><stop stop-opacity="1" stop-color="rgb(61.856079%, 29.042053%, 13.929749%)" offset="0.4375"/><stop stop-opacity="1" stop-color="rgb(61.515808%, 28.717041%, 13.700867%)" offset="0.441406"/><stop stop-opacity="1" stop-color="rgb(61.175537%, 28.392029%, 13.473511%)" offset="0.445312"/><stop stop-opacity="1" stop-color="rgb(60.835266%, 28.065491%, 13.246155%)" offset="0.449219"/><stop stop-opacity="1" stop-color="rgb(60.496521%, 27.740479%, 13.018799%)" offset="0.453125"/><stop stop-opacity="1" stop-color="rgb(60.15625%, 27.415466%, 12.789917%)" offset="0.457031"/><stop stop-opacity="1" stop-color="rgb(59.815979%, 27.090454%, 12.562561%)" offset="0.460937"/><stop stop-opacity="1" stop-color="rgb(59.475708%, 26.763916%, 12.335205%)" offset="0.464844"/><stop stop-opacity="1" stop-color="rgb(59.136963%, 26.438904%, 12.107849%)" offset="0.46875"/><stop stop-opacity="1" stop-color="rgb(58.796692%, 26.113892%, 11.878967%)" offset="0.472656"/><stop stop-opacity="1" stop-color="rgb(58.457947%, 25.788879%, 11.651611%)" offset="0.476562"/><stop stop-opacity="1" stop-color="rgb(58.117676%, 25.462341%, 11.424255%)" offset="0.480469"/><stop stop-opacity="1" stop-color="rgb(57.777405%, 25.137329%, 11.196899%)" offset="0.484375"/><stop stop-opacity="1" stop-color="rgb(57.437134%, 24.812317%, 10.968018%)" offset="0.488281"/><stop stop-opacity="1" stop-color="rgb(57.098389%, 24.487305%, 10.740662%)" offset="0.492187"/><stop stop-opacity="1" stop-color="rgb(56.758118%, 24.162292%, 10.513306%)" offset="0.496094"/><stop stop-opacity="1" stop-color="rgb(56.417847%, 23.83728%, 10.28595%)" offset="0.5"/><stop stop-opacity="1" stop-color="rgb(56.077576%, 23.510742%, 10.057068%)" offset="0.503906"/><stop stop-opacity="1" stop-color="rgb(55.738831%, 23.18573%, 9.829712%)" offset="0.507812"/><stop stop-opacity="1" stop-color="rgb(55.39856%, 22.860718%, 9.602356%)" offset="0.511719"/><stop stop-opacity="1" stop-color="rgb(55.058289%, 22.535706%, 9.375%)" offset="0.515625"/><stop stop-opacity="1" stop-color="rgb(54.73938%, 22.227478%, 9.162903%)" offset="0.519531"/><stop stop-opacity="1" stop-color="rgb(54.421997%, 21.91925%, 8.950806%)" offset="0.523437"/><stop stop-opacity="1" stop-color="rgb(54.200745%, 21.69342%, 8.811951%)" offset="0.527344"/><stop stop-opacity="1" stop-color="rgb(53.979492%, 21.46759%, 8.673096%)" offset="0.53125"/><stop stop-opacity="1" stop-color="rgb(53.75824%, 21.240234%, 8.534241%)" offset="0.535156"/><stop stop-opacity="1" stop-color="rgb(53.536987%, 21.014404%, 8.395386%)" offset="0.539062"/><stop stop-opacity="1" stop-color="rgb(53.315735%, 20.788574%, 8.256531%)" offset="0.542969"/><stop stop-opacity="1" stop-color="rgb(53.096008%, 20.562744%, 8.117676%)" offset="0.546875"/><stop stop-opacity="1" stop-color="rgb(52.874756%, 20.336914%, 7.978821%)" offset="0.550781"/><stop stop-opacity="1" stop-color="rgb(52.653503%, 20.111084%, 7.839966%)" offset="0.554687"/><stop stop-opacity="1" stop-color="rgb(52.432251%, 19.883728%, 7.701111%)" offset="0.558594"/><stop stop-opacity="1" stop-color="rgb(52.212524%, 19.657898%, 7.562256%)" offset="0.5625"/><stop stop-opacity="1" stop-color="rgb(51.991272%, 19.432068%, 7.423401%)" offset="0.566406"/><stop stop-opacity="1" stop-color="rgb(51.77002%, 19.206238%, 7.286072%)" offset="0.570312"/><stop stop-opacity="1" stop-color="rgb(51.548767%, 18.980408%, 7.147217%)" offset="0.574219"/><stop stop-opacity="1" stop-color="rgb(51.327515%, 18.754578%, 7.008362%)" offset="0.578125"/><stop stop-opacity="1" stop-color="rgb(51.106262%, 18.527222%, 6.869507%)" offset="0.582031"/><stop stop-opacity="1" stop-color="rgb(50.886536%, 18.301392%, 6.730652%)" offset="0.585938"/><stop stop-opacity="1" stop-color="rgb(50.665283%, 18.075562%, 6.591797%)" offset="0.589844"/><stop stop-opacity="1" stop-color="rgb(50.444031%, 17.849731%, 6.452942%)" offset="0.59375"/><stop stop-opacity="1" stop-color="rgb(50.32196%, 17.724609%, 6.375122%)" offset="0.625"/><stop stop-opacity="1" stop-color="rgb(50.19989%, 17.599487%, 6.298828%)" offset="0.75"/><stop stop-opacity="1" stop-color="rgb(50.19989%, 17.599487%, 6.298828%)" offset="1"/></linearGradient><clipPath id="5a9f9701b2"><path d="M 149 140 L 303 140 L 303 236 L 149 236 Z M 149 140 " clip-rule="nonzero"/></clipPath><clipPath id="3493e29e70"><path d="M 77.152344 356.425781 L -28.0625 70.679688 L 257.683594 -34.535156 L 362.894531 251.210938 Z M 77.152344 356.425781 " clip-rule="nonzero"/></clipPath><clipPath id="02c7745d76"><path d="M 77.152344 356.425781 L -28.0625 70.679688 L 257.683594 -34.535156 L 362.894531 251.210938 Z M 77.152344 356.425781 " clip-rule="nonzero"/></clipPath><clipPath id="a46517633d"><path d="M 77.152344 356.425781 L -28.0625 70.679688 L 257.683594 -34.535156 L 362.894531 251.210938 Z M 77.152344 356.425781 " clip-rule="nonzero"/></clipPath><clipPath id="e7c37f38aa"><path d="M 22 79 L 64 79 L 64 130 L 22 130 Z M 22 79 " clip-rule="nonzero"/></clipPath><clipPath id="25e3f81eba"><path d="M 77.152344 356.425781 L -28.0625 70.679688 L 257.683594 -34.535156 L 362.894531 251.210938 Z M 77.152344 356.425781 " clip-rule="nonzero"/></clipPath><clipPath id="e3484fdc9c"><path d="M 77.152344 356.425781 L -28.0625 70.679688 L 257.683594 -34.535156 L 362.894531 251.210938 Z M 77.152344 356.425781 " clip-rule="nonzero"/></clipPath><clipPath id="faf80876a4"><path d="M 77.152344 356.425781 L -28.0625 70.679688 L 257.683594 -34.535156 L 362.894531 251.210938 Z M 77.152344 356.425781 " clip-rule="nonzero"/></clipPath><clipPath id="b523673509"><path d="M 299 207 L 353 207 L 353 262 L 299 262 Z M 299 207 " clip-rule="nonzero"/></clipPath><clipPath id="9e16fafb3c"><path d="M 77.152344 356.425781 L -28.0625 70.679688 L 257.683594 -34.535156 L 362.894531 251.210938 Z M 77.152344 356.425781 " clip-rule="nonzero"/></clipPath><clipPath id="73fa064789"><path d="M 77.152344 356.425781 L -28.0625 70.679688 L 257.683594 -34.535156 L 362.894531 251.210938 Z M 77.152344 356.425781 " clip-rule="nonzero"/></clipPath><clipPath id="c05f7f7b7e"><path d="M 77.152344 356.425781 L -28.0625 70.679688 L 257.683594 -34.535156 L 362.894531 251.210938 Z M 77.152344 356.425781 " clip-rule="nonzero"/></clipPath><clipPath id="e71401b87b"><path d="M 310.9375 212.753906 L 299.921875 236.609375 C 297.726562 241.363281 299.796875 246.988281 304.546875 249.171875 L 328.40625 260.191406 C 333.15625 262.382812 338.78125 260.3125 340.96875 255.5625 L 351.984375 231.707031 C 354.175781 226.957031 352.105469 221.332031 347.359375 219.144531 L 323.5 208.128906 C 318.757812 205.929688 313.132812 208.003906 310.9375 212.753906 Z M 310.9375 212.753906 " clip-rule="nonzero"/></clipPath><linearGradient x1="4.965958" gradientTransform="matrix(-2.7615, -7.49988, 7.49988, -2.7615, 63.443946, 411.720085)" y1="33.964342" x2="14.033811" gradientUnits="userSpaceOnUse" y2="43.034333" id="e196859f19"><stop stop-opacity="1" stop-color="rgb(63.09967%, 66.699219%, 70.199585%)" offset="0"/><stop stop-opacity="1" stop-color="rgb(63.09967%, 66.699219%, 70.199585%)" offset="0.25"/><stop stop-opacity="1" stop-color="rgb(63.09967%, 66.699219%, 70.199585%)" offset="0.28125"/><stop stop-opacity="1" stop-color="rgb(63.035583%, 66.63208%, 70.124817%)" offset="0.296875"/><stop stop-opacity="1" stop-color="rgb(62.85553%, 66.438293%, 69.914246%)" offset="0.3125"/><stop stop-opacity="1" stop-color="rgb(62.62207%, 66.188049%, 69.639587%)" offset="0.328125"/><stop stop-opacity="1" stop-color="rgb(62.387085%, 65.936279%, 69.364929%)" offset="0.34375"/><stop stop-opacity="1" stop-color="rgb(62.153625%, 65.686035%, 69.091797%)" offset="0.359375"/><stop stop-opacity="1" stop-color="rgb(61.91864%, 65.434265%, 68.817139%)" offset="0.375"/><stop stop-opacity="1" stop-color="rgb(61.683655%, 65.182495%, 68.54248%)" offset="0.390625"/><stop stop-opacity="1" stop-color="rgb(61.450195%, 64.932251%, 68.267822%)" offset="0.40625"/><stop stop-opacity="1" stop-color="rgb(61.21521%, 64.680481%, 67.993164%)" offset="0.421875"/><stop stop-opacity="1" stop-color="rgb(60.98175%, 64.430237%, 67.718506%)" offset="0.4375"/><stop stop-opacity="1" stop-color="rgb(60.746765%, 64.178467%, 67.443848%)" offset="0.453125"/><stop stop-opacity="1" stop-color="rgb(60.51178%, 63.928223%, 67.169189%)" offset="0.46875"/><stop stop-opacity="1" stop-color="rgb(60.27832%, 63.676453%, 66.894531%)" offset="0.484375"/><stop stop-opacity="1" stop-color="rgb(60.043335%, 63.426208%, 66.619873%)" offset="0.499947"/><stop stop-opacity="1" stop-color="rgb(59.927368%, 63.301086%, 66.482544%)" offset="0.5"/><stop stop-opacity="1" stop-color="rgb(59.809875%, 63.174438%, 66.345215%)" offset="0.500053"/><stop stop-opacity="1" stop-color="rgb(59.692383%, 63.049316%, 66.207886%)" offset="0.515625"/><stop stop-opacity="1" stop-color="rgb(59.57489%, 62.922668%, 66.070557%)" offset="0.53125"/><stop stop-opacity="1" stop-color="rgb(59.341431%, 62.672424%, 65.797424%)" offset="0.546875"/><stop stop-opacity="1" stop-color="rgb(59.106445%, 62.420654%, 65.522766%)" offset="0.5625"/><stop stop-opacity="1" stop-color="rgb(58.87146%, 62.17041%, 65.248108%)" offset="0.578125"/><stop stop-opacity="1" stop-color="rgb(58.638%, 61.91864%, 64.97345%)" offset="0.59375"/><stop stop-opacity="1" stop-color="rgb(58.403015%, 61.668396%, 64.698792%)" offset="0.609375"/><stop stop-opacity="1" stop-color="rgb(58.169556%, 61.416626%, 64.424133%)" offset="0.625"/><stop stop-opacity="1" stop-color="rgb(57.93457%, 61.164856%, 64.149475%)" offset="0.640625"/><stop stop-opacity="1" stop-color="rgb(57.699585%, 60.914612%, 63.874817%)" offset="0.65625"/><stop stop-opacity="1" stop-color="rgb(57.466125%, 60.662842%, 63.600159%)" offset="0.671875"/><stop stop-opacity="1" stop-color="rgb(57.23114%, 60.412598%, 63.3255%)" offset="0.6875"/><stop stop-opacity="1" stop-color="rgb(56.997681%, 60.160828%, 63.050842%)" offset="0.703125"/><stop stop-opacity="1" stop-color="rgb(56.762695%, 59.910583%, 62.776184%)" offset="0.71875"/><stop stop-opacity="1" stop-color="rgb(56.52771%, 59.658813%, 62.503052%)" offset="0.734375"/><stop stop-opacity="1" stop-color="rgb(56.29425%, 59.408569%, 62.228394%)" offset="0.75"/><stop stop-opacity="1" stop-color="rgb(56.137085%, 59.240723%, 62.045288%)" offset="1"/></linearGradient><clipPath id="59d1c39e77"><path d="M 15 22 L 175 22 L 175 234 L 15 234 Z M 15 22 " clip-rule="nonzero"/></clipPath><clipPath id="597225b51a"><path d="M 77.152344 356.425781 L -28.0625 70.679688 L 257.683594 -34.535156 L 362.894531 251.210938 Z M 77.152344 356.425781 " clip-rule="nonzero"/></clipPath><clipPath id="f7adf3d16b"><path d="M 77.152344 356.425781 L -28.0625 70.679688 L 257.683594 -34.535156 L 362.894531 251.210938 Z M 77.152344 356.425781 " clip-rule="nonzero"/></clipPath><clipPath id="5385940b07"><path d="M 77.152344 356.425781 L -28.0625 70.679688 L 257.683594 -34.535156 L 362.894531 251.210938 Z M 77.152344 356.425781 " clip-rule="nonzero"/></clipPath><clipPath id="281ae2efba"><path d="M 15 42 L 175 42 L 175 213 L 15 213 Z M 15 42 " clip-rule="nonzero"/></clipPath><clipPath id="82b59ca4ee"><path d="M 77.152344 356.425781 L -28.0625 70.679688 L 257.683594 -34.535156 L 362.894531 251.210938 Z M 77.152344 356.425781 " clip-rule="nonzero"/></clipPath><clipPath id="cb8f9b6c6a"><path d="M 77.152344 356.425781 L -28.0625 70.679688 L 257.683594 -34.535156 L 362.894531 251.210938 Z M 77.152344 356.425781 " clip-rule="nonzero"/></clipPath><clipPath id="19a3091cde"><path d="M 77.152344 356.425781 L -28.0625 70.679688 L 257.683594 -34.535156 L 362.894531 251.210938 Z M 77.152344 356.425781 " clip-rule="nonzero"/></clipPath><clipPath id="c96563fc62"><path d="M 72.199219 42.28125 L 174.8125 89.664062 L 166.328125 108.03125 L 159.601562 122.601562 L 133.160156 179.859375 L 126.433594 194.433594 L 117.949219 212.800781 L 15.335938 165.417969 Z M 72.199219 42.28125 " clip-rule="nonzero"/></clipPath><linearGradient x1="18.747305" gradientTransform="matrix(-2.7615, -7.49988, 7.49988, -2.7615, 63.443946, 411.720085)" y1="2.745863" x2="45.253209" gradientUnits="userSpaceOnUse" y2="29.253626" id="5c93d9e809"><stop stop-opacity="1" stop-color="rgb(63.09967%, 66.699219%, 70.199585%)" offset="0"/><stop stop-opacity="1" stop-color="rgb(63.018799%, 66.612244%, 70.10498%)" offset="0.25"/><stop stop-opacity="1" stop-color="rgb(62.835693%, 66.416931%, 69.889832%)" offset="0.265625"/><stop stop-opacity="1" stop-color="rgb(62.631226%, 66.19873%, 69.651794%)" offset="0.28125"/><stop stop-opacity="1" stop-color="rgb(62.428284%, 65.98053%, 69.413757%)" offset="0.296875"/><stop stop-opacity="1" stop-color="rgb(62.225342%, 65.762329%, 69.17572%)" offset="0.3125"/><stop stop-opacity="1" stop-color="rgb(62.0224%, 65.545654%, 68.937683%)" offset="0.328125"/><stop stop-opacity="1" stop-color="rgb(61.817932%, 65.327454%, 68.699646%)" offset="0.34375"/><stop stop-opacity="1" stop-color="rgb(61.61499%, 65.109253%, 68.461609%)" offset="0.359375"/><stop stop-opacity="1" stop-color="rgb(61.412048%, 64.891052%, 68.223572%)" offset="0.375"/><stop stop-opacity="1" stop-color="rgb(61.209106%, 64.674377%, 67.985535%)" offset="0.390625"/><stop stop-opacity="1" stop-color="rgb(61.006165%, 64.456177%, 67.747498%)" offset="0.40625"/><stop stop-opacity="1" stop-color="rgb(60.801697%, 64.237976%, 67.50946%)" offset="0.421875"/><stop stop-opacity="1" stop-color="rgb(60.598755%, 64.019775%, 67.271423%)" offset="0.4375"/><stop stop-opacity="1" stop-color="rgb(60.395813%, 63.803101%, 67.033386%)" offset="0.453125"/><stop stop-opacity="1" stop-color="rgb(60.192871%, 63.5849%, 66.795349%)" offset="0.46875"/><stop stop-opacity="1" stop-color="rgb(59.988403%, 63.366699%, 66.557312%)" offset="0.484375"/><stop stop-opacity="1" stop-color="rgb(59.785461%, 63.148499%, 66.317749%)" offset="0.492289"/><stop stop-opacity="1" stop-color="rgb(59.684753%, 63.040161%, 66.19873%)" offset="0.5"/><stop stop-opacity="1" stop-color="rgb(59.58252%, 62.931824%, 66.079712%)" offset="0.507711"/><stop stop-opacity="1" stop-color="rgb(59.481812%, 62.823486%, 65.960693%)" offset="0.515625"/><stop stop-opacity="1" stop-color="rgb(59.379578%, 62.713623%, 65.841675%)" offset="0.53125"/><stop stop-opacity="1" stop-color="rgb(59.176636%, 62.495422%, 65.603638%)" offset="0.546875"/><stop stop-opacity="1" stop-color="rgb(58.972168%, 62.277222%, 65.365601%)" offset="0.5625"/><stop stop-opacity="1" stop-color="rgb(58.769226%, 62.060547%, 65.127563%)" offset="0.578125"/><stop stop-opacity="1" stop-color="rgb(58.566284%, 61.842346%, 64.889526%)" offset="0.59375"/><stop stop-opacity="1" stop-color="rgb(58.363342%, 61.624146%, 64.651489%)" offset="0.609375"/><stop stop-opacity="1" stop-color="rgb(58.158875%, 61.407471%, 64.413452%)" offset="0.625"/><stop stop-opacity="1" stop-color="rgb(57.955933%, 61.18927%, 64.175415%)" offset="0.640625"/><stop stop-opacity="1" stop-color="rgb(57.752991%, 60.971069%, 63.937378%)" offset="0.65625"/><stop stop-opacity="1" stop-color="rgb(57.550049%, 60.752869%, 63.699341%)" offset="0.671875"/><stop stop-opacity="1" stop-color="rgb(57.347107%, 60.536194%, 63.461304%)" offset="0.6875"/><stop stop-opacity="1" stop-color="rgb(57.142639%, 60.317993%, 63.223267%)" offset="0.703125"/><stop stop-opacity="1" stop-color="rgb(56.939697%, 60.099792%, 62.985229%)" offset="0.71875"/><stop stop-opacity="1" stop-color="rgb(56.736755%, 59.881592%, 62.745667%)" offset="0.734375"/><stop stop-opacity="1" stop-color="rgb(56.533813%, 59.664917%, 62.507629%)" offset="0.75"/><stop stop-opacity="1" stop-color="rgb(56.265259%, 59.378052%, 62.193298%)" offset="1"/></linearGradient><clipPath id="a1a0485d57"><path d="M 116 176 L 134 176 L 134 195 L 116 195 Z M 116 176 " clip-rule="nonzero"/></clipPath><clipPath id="8a22db0985"><path d="M 77.152344 356.425781 L -28.0625 70.679688 L 257.683594 -34.535156 L 362.894531 251.210938 Z M 77.152344 356.425781 " clip-rule="nonzero"/></clipPath><clipPath id="ad3d514f39"><path d="M 77.152344 356.425781 L -28.0625 70.679688 L 257.683594 -34.535156 L 362.894531 251.210938 Z M 77.152344 356.425781 " clip-rule="nonzero"/></clipPath><clipPath id="e131a5dfbe"><path d="M 77.152344 356.425781 L -28.0625 70.679688 L 257.683594 -34.535156 L 362.894531 251.210938 Z M 77.152344 356.425781 " clip-rule="nonzero"/></clipPath><clipPath id="fa22fd8203"><path d="M 149 104 L 167 104 L 167 123 L 149 123 Z M 149 104 " clip-rule="nonzero"/></clipPath><clipPath id="3fc7cf7f64"><path d="M 77.152344 356.425781 L -28.0625 70.679688 L 257.683594 -34.535156 L 362.894531 251.210938 Z M 77.152344 356.425781 " clip-rule="nonzero"/></clipPath><clipPath id="e52d164560"><path d="M 77.152344 356.425781 L -28.0625 70.679688 L 257.683594 -34.535156 L 362.894531 251.210938 Z M 77.152344 356.425781 " clip-rule="nonzero"/></clipPath><clipPath id="2f34899923"><path d="M 77.152344 356.425781 L -28.0625 70.679688 L 257.683594 -34.535156 L 362.894531 251.210938 Z M 77.152344 356.425781 " clip-rule="nonzero"/></clipPath><clipPath id="eaac9c8d81"><path d="M 27 80 L 161 80 L 161 170 L 27 170 Z M 27 80 " clip-rule="nonzero"/></clipPath><clipPath id="a1c62c3098"><path d="M 77.152344 356.425781 L -28.0625 70.679688 L 257.683594 -34.535156 L 362.894531 251.210938 Z M 77.152344 356.425781 " clip-rule="nonzero"/></clipPath><clipPath id="1833bc3b44"><path d="M 77.152344 356.425781 L -28.0625 70.679688 L 257.683594 -34.535156 L 362.894531 251.210938 Z M 77.152344 356.425781 " clip-rule="nonzero"/></clipPath><clipPath id="77b4c323c4"><path d="M 77.152344 356.425781 L -28.0625 70.679688 L 257.683594 -34.535156 L 362.894531 251.210938 Z M 77.152344 356.425781 " clip-rule="nonzero"/></clipPath><clipPath id="8393fbe2c4"><path d="M 30 81 L 158 81 L 158 169 L 30 169 Z M 30 81 " clip-rule="nonzero"/></clipPath><clipPath id="b3cc312bbb"><path d="M 77.152344 356.425781 L -28.0625 70.679688 L 257.683594 -34.535156 L 362.894531 251.210938 Z M 77.152344 356.425781 " clip-rule="nonzero"/></clipPath><clipPath id="c9a1b8b463"><path d="M 77.152344 356.425781 L -28.0625 70.679688 L 257.683594 -34.535156 L 362.894531 251.210938 Z M 77.152344 356.425781 " clip-rule="nonzero"/></clipPath><clipPath id="0416aa2811"><path d="M 77.152344 356.425781 L -28.0625 70.679688 L 257.683594 -34.535156 L 362.894531 251.210938 Z M 77.152344 356.425781 " clip-rule="nonzero"/></clipPath><clipPath id="53aa3ba469"><path d="M 291 206 L 314 206 L 314 241 L 291 241 Z M 291 206 " clip-rule="nonzero"/></clipPath><clipPath id="b5751ed49b"><path d="M 77.152344 356.425781 L -28.0625 70.679688 L 257.683594 -34.535156 L 362.894531 251.210938 Z M 77.152344 356.425781 " clip-rule="nonzero"/></clipPath><clipPath id="0941853df1"><path d="M 77.152344 356.425781 L -28.0625 70.679688 L 257.683594 -34.535156 L 362.894531 251.210938 Z M 77.152344 356.425781 " clip-rule="nonzero"/></clipPath><clipPath id="2aea9d8a28"><path d="M 77.152344 356.425781 L -28.0625 70.679688 L 257.683594 -34.535156 L 362.894531 251.210938 Z M 77.152344 356.425781 " clip-rule="nonzero"/></clipPath><clipPath id="8cbf07efa0"><path d="M 295 207 L 314 207 L 314 241 L 295 241 Z M 295 207 " clip-rule="nonzero"/></clipPath><clipPath id="72c153061a"><path d="M 77.152344 356.425781 L -28.0625 70.679688 L 257.683594 -34.535156 L 362.894531 251.210938 Z M 77.152344 356.425781 " clip-rule="nonzero"/></clipPath><clipPath id="b161d6d98f"><path d="M 77.152344 356.425781 L -28.0625 70.679688 L 257.683594 -34.535156 L 362.894531 251.210938 Z M 77.152344 356.425781 " clip-rule="nonzero"/></clipPath><clipPath id="e8b5d11f7d"><path d="M 77.152344 356.425781 L -28.0625 70.679688 L 257.683594 -34.535156 L 362.894531 251.210938 Z M 77.152344 356.425781 " clip-rule="nonzero"/></clipPath></defs><rect x="-37.5" width="450" fill="#ffffff" y="-37.499999" height="449.999989" fill-opacity="1"/><rect x="-37.5" width="450" fill="#ffffff" y="-37.499999" height="449.999989" fill-opacity="1"/><g clip-path="url(#612e2ef0e0)"><g clip-path="url(#b0645db230)"><g clip-path="url(#eff6c0fdf3)"><g clip-path="url(#f4fbde7299)"><g clip-path="url(#dc67df8cae)"><path fill="url(#07c614cc87)" d="M 139.820312 320.699219 L 373.773438 234.554688 L 306.863281 52.839844 L 72.910156 138.984375 Z M 139.820312 320.699219 " fill-rule="nonzero"/></g></g></g></g></g><g clip-path="url(#5a9f9701b2)"><g clip-path="url(#3493e29e70)"><g clip-path="url(#02c7745d76)"><g clip-path="url(#a46517633d)"><path fill="#5c2415" d="M 179.140625 147.6875 L 164.925781 178.46875 L 149.535156 171.363281 L 163.75 140.578125 Z M 194.535156 154.792969 L 180.320312 185.578125 L 195.710938 192.683594 L 209.925781 161.902344 Z M 225.316406 169.007812 L 211.101562 199.792969 L 226.496094 206.898438 L 240.710938 176.117188 Z M 256.101562 183.222656 L 241.886719 214.007812 L 257.277344 221.117188 L 271.496094 190.332031 Z M 286.886719 197.4375 L 272.671875 228.222656 L 288.0625 235.332031 L 302.277344 204.546875 Z M 286.886719 197.4375 " fill-opacity="1" fill-rule="nonzero"/></g></g></g></g><g clip-path="url(#e7c37f38aa)"><g clip-path="url(#25e3f81eba)"><g clip-path="url(#e3484fdc9c)"><g clip-path="url(#faf80876a4)"><path fill="#64717c" d="M 33.847656 84.886719 L 22.90625 108.582031 C 20.695312 113.375 22.785156 119.050781 27.578125 121.265625 L 44.550781 129.109375 L 63.503906 88.0625 L 46.523438 80.222656 C 41.730469 78.007812 36.0625 80.097656 33.847656 84.886719 Z M 33.847656 84.886719 " fill-opacity="1" fill-rule="nonzero"/></g></g></g></g><g clip-path="url(#b523673509)"><g clip-path="url(#9e16fafb3c)"><g clip-path="url(#73fa064789)"><g clip-path="url(#c05f7f7b7e)"><g clip-path="url(#e71401b87b)"><path fill="url(#e196859f19)" d="M 304.46875 280.6875 L 372.480469 255.644531 L 347.4375 187.628906 L 279.421875 212.671875 Z M 304.46875 280.6875 " fill-rule="nonzero"/></g></g></g></g></g><g clip-path="url(#59d1c39e77)"><g clip-path="url(#597225b51a)"><g clip-path="url(#f7adf3d16b)"><g clip-path="url(#5385940b07)"><path fill="#64717c" d="M 72.199219 42.28125 L 15.335938 165.417969 L 20.980469 201.449219 C 21.394531 204.09375 23.101562 206.351562 25.523438 207.46875 L 79.324219 232.3125 C 81.746094 233.429688 84.574219 233.265625 86.851562 231.867188 L 117.949219 212.800781 L 174.8125 89.664062 L 169.164062 53.628906 C 168.753906 50.988281 167.046875 48.730469 164.625 47.613281 L 110.824219 22.769531 C 108.402344 21.648438 105.574219 21.8125 103.296875 23.214844 Z M 72.199219 42.28125 " fill-opacity="1" fill-rule="nonzero"/></g></g></g></g><g clip-path="url(#281ae2efba)"><g clip-path="url(#82b59ca4ee)"><g clip-path="url(#cb8f9b6c6a)"><g clip-path="url(#19a3091cde)"><g clip-path="url(#c96563fc62)"><path fill="url(#5c93d9e809)" d="M 34.375 264.507812 L 230.101562 192.441406 L 155.773438 -9.429688 L -39.953125 62.636719 Z M 34.375 264.507812 " fill-rule="nonzero"/></g></g></g></g></g><g clip-path="url(#a1a0485d57)"><g clip-path="url(#8a22db0985)"><g clip-path="url(#ad3d514f39)"><g clip-path="url(#e131a5dfbe)"><path fill="#64717c" d="M 128.03125 177.492188 L 133.160156 179.859375 L 126.433594 194.433594 L 121.300781 192.0625 C 117.300781 190.214844 115.53125 185.414062 117.378906 181.414062 C 119.226562 177.410156 124.027344 175.644531 128.03125 177.492188 Z M 128.03125 177.492188 " fill-opacity="1" fill-rule="nonzero"/></g></g></g></g><g clip-path="url(#fa22fd8203)"><g clip-path="url(#3fc7cf7f64)"><g clip-path="url(#e52d164560)"><g clip-path="url(#2f34899923)"><path fill="#64717c" d="M 161.199219 105.664062 L 166.328125 108.03125 L 159.601562 122.601562 L 154.46875 120.234375 C 150.46875 118.386719 148.699219 113.585938 150.550781 109.582031 C 152.398438 105.582031 157.195312 103.8125 161.199219 105.664062 Z M 161.199219 105.664062 " fill-opacity="1" fill-rule="nonzero"/></g></g></g></g><g clip-path="url(#eaac9c8d81)"><g clip-path="url(#a1c62c3098)"><g clip-path="url(#1833bc3b44)"><g clip-path="url(#77b4c323c4)"><path fill="#000000" d="M 27.050781 120.902344 C 27.210938 121.101562 27.414062 121.195312 27.621094 121.289062 L 30.699219 122.710938 L 34.289062 124.371094 L 53.242188 83.324219 L 49.652344 81.667969 L 46.574219 80.246094 C 46.367188 80.152344 46.164062 80.054688 45.910156 80.0625 Z M 142.863281 168.28125 L 146.558594 169.988281 L 160.773438 139.203125 L 157.078125 137.5 L 153.488281 135.839844 L 139.273438 166.625 Z M 142.863281 168.28125 " fill-opacity="0.05" fill-rule="nonzero"/></g></g></g></g><g clip-path="url(#8393fbe2c4)"><g clip-path="url(#b3cc312bbb)"><g clip-path="url(#c9a1b8b463)"><g clip-path="url(#0416aa2811)"><path fill="#000000" d="M 30.699219 122.710938 L 34.289062 124.371094 L 53.242188 83.324219 L 49.652344 81.667969 Z M 142.863281 168.28125 L 157.078125 137.5 L 153.488281 135.839844 L 139.273438 166.625 Z M 142.863281 168.28125 " fill-opacity="0.07" fill-rule="nonzero"/></g></g></g></g><g clip-path="url(#53aa3ba469)"><g clip-path="url(#b5751ed49b)"><g clip-path="url(#0941853df1)"><g clip-path="url(#2aea9d8a28)"><path fill="#000000" d="M 303.71875 209.382812 L 292.679688 233.289062 C 292.15625 234.417969 291.765625 235.671875 291.449219 236.894531 L 299.042969 240.402344 C 299.078125 239.109375 299.367188 237.8125 299.9375 236.578125 L 310.929688 212.773438 C 311.496094 211.542969 312.300781 210.480469 313.257812 209.617188 L 305.664062 206.109375 C 304.910156 207.070312 304.210938 208.179688 303.71875 209.382812 Z M 303.71875 209.382812 " fill-opacity="0.05" fill-rule="nonzero"/></g></g></g></g><g clip-path="url(#8cbf07efa0)"><g clip-path="url(#72c153061a)"><g clip-path="url(#b161d6d98f)"><g clip-path="url(#e8b5d11f7d)"><path fill="#000000" d="M 307.308594 211.039062 L 296.269531 234.949219 C 295.777344 236.152344 295.382812 237.402344 295.246094 238.648438 L 299.042969 240.402344 C 299.078125 239.109375 299.367188 237.8125 299.9375 236.578125 L 310.929688 212.773438 C 311.496094 211.542969 312.300781 210.480469 313.257812 209.617188 L 309.460938 207.863281 C 308.605469 208.773438 307.90625 209.882812 307.308594 211.039062 Z M 307.308594 211.039062 " fill-opacity="0.07" fill-rule="nonzero"/></g></g></g></g></svg>