<svg xmlns="http://www.w3.org/2000/svg" xmlns:xlink="http://www.w3.org/1999/xlink" width="500" zoomAndPan="magnify" viewBox="0 0 375 374.999991" height="500" preserveAspectRatio="xMidYMid meet" version="1.0"><defs><clipPath id="e09307f8b1"><path d="M 128 107 L 264 107 L 264 324 L 128 324 Z M 128 107 " clip-rule="nonzero"/></clipPath><clipPath id="e0c4a29367"><path d="M -23.300781 260.878906 L 67.488281 -29.769531 L 358.140625 61.019531 L 267.351562 351.667969 Z M -23.300781 260.878906 " clip-rule="nonzero"/></clipPath><clipPath id="9d7e2eef47"><path d="M -23.300781 260.878906 L 67.488281 -29.769531 L 358.140625 61.019531 L 267.351562 351.667969 Z M -23.300781 260.878906 " clip-rule="nonzero"/></clipPath><clipPath id="937637d8bf"><path d="M -23.300781 260.878906 L 67.488281 -29.769531 L 358.140625 61.019531 L 267.351562 351.667969 Z M -23.300781 260.878906 " clip-rule="nonzero"/></clipPath><clipPath id="849de52f7d"><path d="M 158.570312 107.527344 L 128.535156 123.265625 L 233.449219 323.496094 L 263.484375 307.757812 Z M 158.570312 107.527344 " clip-rule="nonzero"/></clipPath><linearGradient x1="5.749465" gradientTransform="matrix(2.382922, -7.628615, 7.628615, 2.382922, -67.872827, 296.356806)" y1="14.749465" x2="33.250535" gradientUnits="userSpaceOnUse" y2="42.250535" id="edb728b6b7"><stop stop-opacity="1" stop-color="rgb(63.899231%, 30.999756%, 15.299988%)" offset="0"/><stop stop-opacity="1" stop-color="rgb(63.899231%, 30.999756%, 15.299988%)" offset="0.25"/><stop stop-opacity="1" stop-color="rgb(63.899231%, 30.999756%, 15.299988%)" offset="0.375"/><stop stop-opacity="1" stop-color="rgb(63.899231%, 30.999756%, 15.299988%)" offset="0.40625"/><stop stop-opacity="1" stop-color="rgb(63.868713%, 30.969238%, 15.278625%)" offset="0.414063"/><stop stop-opacity="1" stop-color="rgb(63.500977%, 30.61676%, 15.031433%)" offset="0.417969"/><stop stop-opacity="1" stop-color="rgb(63.163757%, 30.2948%, 14.805603%)" offset="0.421875"/><stop stop-opacity="1" stop-color="rgb(62.826538%, 29.971313%, 14.579773%)" offset="0.425781"/><stop stop-opacity="1" stop-color="rgb(62.489319%, 29.649353%, 14.353943%)" offset="0.429688"/><stop stop-opacity="1" stop-color="rgb(62.1521%, 29.325867%, 14.128113%)" offset="0.433594"/><stop stop-opacity="1" stop-color="rgb(61.81488%, 29.00238%, 13.902283%)" offset="0.4375"/><stop stop-opacity="1" stop-color="rgb(61.476135%, 28.678894%, 13.674927%)" offset="0.441406"/><stop stop-opacity="1" stop-color="rgb(61.138916%, 28.356934%, 13.449097%)" offset="0.445312"/><stop stop-opacity="1" stop-color="rgb(60.801697%, 28.033447%, 13.223267%)" offset="0.449219"/><stop stop-opacity="1" stop-color="rgb(60.464478%, 27.711487%, 12.997437%)" offset="0.453125"/><stop stop-opacity="1" stop-color="rgb(60.127258%, 27.388%, 12.771606%)" offset="0.457031"/><stop stop-opacity="1" stop-color="rgb(59.790039%, 27.06604%, 12.545776%)" offset="0.460938"/><stop stop-opacity="1" stop-color="rgb(59.45282%, 26.742554%, 12.319946%)" offset="0.464844"/><stop stop-opacity="1" stop-color="rgb(59.115601%, 26.419067%, 12.094116%)" offset="0.46875"/><stop stop-opacity="1" stop-color="rgb(58.778381%, 26.095581%, 11.86676%)" offset="0.472656"/><stop stop-opacity="1" stop-color="rgb(58.441162%, 25.773621%, 11.64093%)" offset="0.476562"/><stop stop-opacity="1" stop-color="rgb(58.103943%, 25.450134%, 11.4151%)" offset="0.480469"/><stop stop-opacity="1" stop-color="rgb(57.766724%, 25.128174%, 11.18927%)" offset="0.484375"/><stop stop-opacity="1" stop-color="rgb(57.429504%, 24.804688%, 10.96344%)" offset="0.488281"/><stop stop-opacity="1" stop-color="rgb(57.092285%, 24.482727%, 10.73761%)" offset="0.492188"/><stop stop-opacity="1" stop-color="rgb(56.755066%, 24.159241%, 10.51178%)" offset="0.496094"/><stop stop-opacity="1" stop-color="rgb(56.417847%, 23.83728%, 10.28595%)" offset="0.5"/><stop stop-opacity="1" stop-color="rgb(56.080627%, 23.513794%, 10.058594%)" offset="0.503906"/><stop stop-opacity="1" stop-color="rgb(55.743408%, 23.190308%, 9.832764%)" offset="0.507812"/><stop stop-opacity="1" stop-color="rgb(55.406189%, 22.866821%, 9.606934%)" offset="0.511719"/><stop stop-opacity="1" stop-color="rgb(55.06897%, 22.544861%, 9.381104%)" offset="0.515625"/><stop stop-opacity="1" stop-color="rgb(54.750061%, 22.236633%, 9.169006%)" offset="0.519531"/><stop stop-opacity="1" stop-color="rgb(54.431152%, 21.929932%, 8.956909%)" offset="0.523438"/><stop stop-opacity="1" stop-color="rgb(54.211426%, 21.705627%, 8.818054%)" offset="0.527344"/><stop stop-opacity="1" stop-color="rgb(53.993225%, 21.481323%, 8.680725%)" offset="0.53125"/><stop stop-opacity="1" stop-color="rgb(53.773499%, 21.257019%, 8.543396%)" offset="0.535156"/><stop stop-opacity="1" stop-color="rgb(53.553772%, 21.032715%, 8.406067%)" offset="0.539062"/><stop stop-opacity="1" stop-color="rgb(53.334045%, 20.808411%, 8.267212%)" offset="0.542969"/><stop stop-opacity="1" stop-color="rgb(53.115845%, 20.584106%, 8.129883%)" offset="0.546875"/><stop stop-opacity="1" stop-color="rgb(52.896118%, 20.359802%, 7.992554%)" offset="0.550781"/><stop stop-opacity="1" stop-color="rgb(52.677917%, 20.135498%, 7.855225%)" offset="0.554688"/><stop stop-opacity="1" stop-color="rgb(52.458191%, 19.909668%, 7.717896%)" offset="0.558594"/><stop stop-opacity="1" stop-color="rgb(52.238464%, 19.685364%, 7.580566%)" offset="0.5625"/><stop stop-opacity="1" stop-color="rgb(52.018738%, 19.46106%, 7.441711%)" offset="0.566406"/><stop stop-opacity="1" stop-color="rgb(51.800537%, 19.236755%, 7.304382%)" offset="0.570312"/><stop stop-opacity="1" stop-color="rgb(51.580811%, 19.012451%, 7.167053%)" offset="0.574219"/><stop stop-opacity="1" stop-color="rgb(51.361084%, 18.788147%, 7.029724%)" offset="0.578125"/><stop stop-opacity="1" stop-color="rgb(51.141357%, 18.563843%, 6.890869%)" offset="0.582031"/><stop stop-opacity="1" stop-color="rgb(50.923157%, 18.339539%, 6.75354%)" offset="0.585938"/><stop stop-opacity="1" stop-color="rgb(50.70343%, 18.115234%, 6.616211%)" offset="0.589844"/><stop stop-opacity="1" stop-color="rgb(50.485229%, 17.89093%, 6.478882%)" offset="0.59375"/><stop stop-opacity="1" stop-color="rgb(50.341797%, 17.744446%, 6.388855%)" offset="0.625"/><stop stop-opacity="1" stop-color="rgb(50.19989%, 17.599487%, 6.298828%)" offset="0.75"/><stop stop-opacity="1" stop-color="rgb(50.19989%, 17.599487%, 6.298828%)" offset="1"/></linearGradient><clipPath id="4f40a62083"><path d="M 146 142 L 248 142 L 248 294 L 146 294 Z M 146 142 " clip-rule="nonzero"/></clipPath><clipPath id="828720b0cf"><path d="M -23.300781 260.878906 L 67.488281 -29.769531 L 358.140625 61.019531 L 267.351562 351.667969 Z M -23.300781 260.878906 " clip-rule="nonzero"/></clipPath><clipPath id="773bd8a8fc"><path d="M -23.300781 260.878906 L 67.488281 -29.769531 L 358.140625 61.019531 L 267.351562 351.667969 Z M -23.300781 260.878906 " clip-rule="nonzero"/></clipPath><clipPath id="ee9f1d16e8"><path d="M -23.300781 260.878906 L 67.488281 -29.769531 L 358.140625 61.019531 L 267.351562 351.667969 Z M -23.300781 260.878906 " clip-rule="nonzero"/></clipPath><clipPath id="39bc687176"><path d="M 79 18 L 130 18 L 130 61 L 79 61 Z M 79 18 " clip-rule="nonzero"/></clipPath><clipPath id="9db1ec0885"><path d="M -23.300781 260.878906 L 67.488281 -29.769531 L 358.140625 61.019531 L 267.351562 351.667969 Z M -23.300781 260.878906 " clip-rule="nonzero"/></clipPath><clipPath id="425d2023a2"><path d="M -23.300781 260.878906 L 67.488281 -29.769531 L 358.140625 61.019531 L 267.351562 351.667969 Z M -23.300781 260.878906 " clip-rule="nonzero"/></clipPath><clipPath id="7d51c4483b"><path d="M -23.300781 260.878906 L 67.488281 -29.769531 L 358.140625 61.019531 L 267.351562 351.667969 Z M -23.300781 260.878906 " clip-rule="nonzero"/></clipPath><clipPath id="3858db8e96"><path d="M 221 288 L 276 288 L 276 343 L 221 343 Z M 221 288 " clip-rule="nonzero"/></clipPath><clipPath id="1f3ae5cbeb"><path d="M -23.300781 260.878906 L 67.488281 -29.769531 L 358.140625 61.019531 L 267.351562 351.667969 Z M -23.300781 260.878906 " clip-rule="nonzero"/></clipPath><clipPath id="a879c22312"><path d="M -23.300781 260.878906 L 67.488281 -29.769531 L 358.140625 61.019531 L 267.351562 351.667969 Z M -23.300781 260.878906 " clip-rule="nonzero"/></clipPath><clipPath id="1f8c98835b"><path d="M -23.300781 260.878906 L 67.488281 -29.769531 L 358.140625 61.019531 L 267.351562 351.667969 Z M -23.300781 260.878906 " clip-rule="nonzero"/></clipPath><clipPath id="e50e14bd57"><path d="M 249.609375 289.507812 L 226.332031 301.707031 C 221.695312 304.132812 219.910156 309.855469 222.339844 314.484375 L 234.535156 337.761719 C 236.964844 342.394531 242.6875 344.183594 247.316406 341.75 L 270.589844 329.554688 C 275.226562 327.125 277.015625 321.40625 274.582031 316.777344 L 262.386719 293.5 C 259.964844 288.867188 254.242188 287.082031 249.609375 289.507812 Z M 249.609375 289.507812 " clip-rule="nonzero"/></clipPath><linearGradient x1="5.02509" gradientTransform="matrix(2.382922, -7.628615, 7.628615, 2.382922, -67.872827, 296.356806)" y1="34.023489" x2="13.974357" gradientUnits="userSpaceOnUse" y2="42.974865" id="8ae37e04c1"><stop stop-opacity="1" stop-color="rgb(63.09967%, 66.699219%, 70.199585%)" offset="0"/><stop stop-opacity="1" stop-color="rgb(63.09967%, 66.699219%, 70.199585%)" offset="0.25"/><stop stop-opacity="1" stop-color="rgb(63.09967%, 66.699219%, 70.199585%)" offset="0.28125"/><stop stop-opacity="1" stop-color="rgb(63.015747%, 66.610718%, 70.101929%)" offset="0.296875"/><stop stop-opacity="1" stop-color="rgb(62.817383%, 66.398621%, 69.869995%)" offset="0.3125"/><stop stop-opacity="1" stop-color="rgb(62.586975%, 66.149902%, 69.598389%)" offset="0.328125"/><stop stop-opacity="1" stop-color="rgb(62.355042%, 65.90271%, 69.328308%)" offset="0.34375"/><stop stop-opacity="1" stop-color="rgb(62.124634%, 65.653992%, 69.056702%)" offset="0.359375"/><stop stop-opacity="1" stop-color="rgb(61.8927%, 65.406799%, 68.786621%)" offset="0.375"/><stop stop-opacity="1" stop-color="rgb(61.662292%, 65.159607%, 68.515015%)" offset="0.390625"/><stop stop-opacity="1" stop-color="rgb(61.430359%, 64.910889%, 68.244934%)" offset="0.40625"/><stop stop-opacity="1" stop-color="rgb(61.198425%, 64.663696%, 67.973328%)" offset="0.421875"/><stop stop-opacity="1" stop-color="rgb(60.968018%, 64.414978%, 67.701721%)" offset="0.4375"/><stop stop-opacity="1" stop-color="rgb(60.736084%, 64.167786%, 67.431641%)" offset="0.453125"/><stop stop-opacity="1" stop-color="rgb(60.505676%, 63.920593%, 67.160034%)" offset="0.46875"/><stop stop-opacity="1" stop-color="rgb(60.273743%, 63.671875%, 66.889954%)" offset="0.484375"/><stop stop-opacity="1" stop-color="rgb(60.041809%, 63.424683%, 66.618347%)" offset="0.499936"/><stop stop-opacity="1" stop-color="rgb(59.927368%, 63.301086%, 66.48407%)" offset="0.5"/><stop stop-opacity="1" stop-color="rgb(59.811401%, 63.175964%, 66.348267%)" offset="0.500064"/><stop stop-opacity="1" stop-color="rgb(59.695435%, 63.052368%, 66.212463%)" offset="0.515625"/><stop stop-opacity="1" stop-color="rgb(59.579468%, 62.928772%, 66.07666%)" offset="0.53125"/><stop stop-opacity="1" stop-color="rgb(59.34906%, 62.680054%, 65.805054%)" offset="0.546875"/><stop stop-opacity="1" stop-color="rgb(59.117126%, 62.432861%, 65.534973%)" offset="0.5625"/><stop stop-opacity="1" stop-color="rgb(58.886719%, 62.185669%, 65.263367%)" offset="0.578125"/><stop stop-opacity="1" stop-color="rgb(58.654785%, 61.936951%, 64.993286%)" offset="0.59375"/><stop stop-opacity="1" stop-color="rgb(58.422852%, 61.689758%, 64.72168%)" offset="0.609375"/><stop stop-opacity="1" stop-color="rgb(58.192444%, 61.44104%, 64.451599%)" offset="0.625"/><stop stop-opacity="1" stop-color="rgb(57.96051%, 61.193848%, 64.179993%)" offset="0.640625"/><stop stop-opacity="1" stop-color="rgb(57.730103%, 60.946655%, 63.908386%)" offset="0.65625"/><stop stop-opacity="1" stop-color="rgb(57.498169%, 60.697937%, 63.638306%)" offset="0.671875"/><stop stop-opacity="1" stop-color="rgb(57.267761%, 60.450745%, 63.366699%)" offset="0.6875"/><stop stop-opacity="1" stop-color="rgb(57.035828%, 60.202026%, 63.096619%)" offset="0.703125"/><stop stop-opacity="1" stop-color="rgb(56.803894%, 59.954834%, 62.825012%)" offset="0.71875"/><stop stop-opacity="1" stop-color="rgb(56.573486%, 59.707642%, 62.554932%)" offset="0.734375"/><stop stop-opacity="1" stop-color="rgb(56.341553%, 59.458923%, 62.283325%)" offset="0.75"/><stop stop-opacity="1" stop-color="rgb(56.163025%, 59.266663%, 62.07428%)" offset="1"/></linearGradient><clipPath id="b53a790fd4"><path d="M 25 8 L 236 8 L 236 172 L 25 172 Z M 25 8 " clip-rule="nonzero"/></clipPath><clipPath id="de166a77da"><path d="M -23.300781 260.878906 L 67.488281 -29.769531 L 358.140625 61.019531 L 267.351562 351.667969 Z M -23.300781 260.878906 " clip-rule="nonzero"/></clipPath><clipPath id="4d0124b4fe"><path d="M -23.300781 260.878906 L 67.488281 -29.769531 L 358.140625 61.019531 L 267.351562 351.667969 Z M -23.300781 260.878906 " clip-rule="nonzero"/></clipPath><clipPath id="6792eec676"><path d="M -23.300781 260.878906 L 67.488281 -29.769531 L 358.140625 61.019531 L 267.351562 351.667969 Z M -23.300781 260.878906 " clip-rule="nonzero"/></clipPath><clipPath id="87d077c0c7"><path d="M 44 8 L 217 8 L 217 172 L 44 172 Z M 44 8 " clip-rule="nonzero"/></clipPath><clipPath id="d7022225ff"><path d="M -23.300781 260.878906 L 67.488281 -29.769531 L 358.140625 61.019531 L 267.351562 351.667969 Z M -23.300781 260.878906 " clip-rule="nonzero"/></clipPath><clipPath id="ecd7333205"><path d="M -23.300781 260.878906 L 67.488281 -29.769531 L 358.140625 61.019531 L 267.351562 351.667969 Z M -23.300781 260.878906 " clip-rule="nonzero"/></clipPath><clipPath id="c75ade1e1f"><path d="M -23.300781 260.878906 L 67.488281 -29.769531 L 358.140625 61.019531 L 267.351562 351.667969 Z M -23.300781 260.878906 " clip-rule="nonzero"/></clipPath><clipPath id="56a36e16b6"><path d="M 164.277344 8.835938 L 216.734375 108.953125 L 198.816406 118.339844 L 184.597656 125.789062 L 128.734375 155.0625 L 114.519531 162.511719 L 96.597656 171.898438 L 44.140625 71.785156 Z M 164.277344 8.835938 " clip-rule="nonzero"/></clipPath><linearGradient x1="18.848025" gradientTransform="matrix(2.382922, -7.628615, 7.628615, 2.382922, -67.872827, 296.356806)" y1="2.84659" x2="45.152487" gradientUnits="userSpaceOnUse" y2="29.152898" id="801b11fb36"><stop stop-opacity="1" stop-color="rgb(63.09967%, 66.699219%, 70.199585%)" offset="0"/><stop stop-opacity="1" stop-color="rgb(63.005066%, 66.598511%, 70.089722%)" offset="0.25"/><stop stop-opacity="1" stop-color="rgb(62.811279%, 66.390991%, 69.862366%)" offset="0.265625"/><stop stop-opacity="1" stop-color="rgb(62.609863%, 66.174316%, 69.625854%)" offset="0.28125"/><stop stop-opacity="1" stop-color="rgb(62.408447%, 65.959167%, 69.389343%)" offset="0.296875"/><stop stop-opacity="1" stop-color="rgb(62.207031%, 65.742493%, 69.152832%)" offset="0.3125"/><stop stop-opacity="1" stop-color="rgb(62.004089%, 65.525818%, 68.916321%)" offset="0.328125"/><stop stop-opacity="1" stop-color="rgb(61.802673%, 65.310669%, 68.67981%)" offset="0.34375"/><stop stop-opacity="1" stop-color="rgb(61.601257%, 65.093994%, 68.443298%)" offset="0.359375"/><stop stop-opacity="1" stop-color="rgb(61.399841%, 64.877319%, 68.206787%)" offset="0.375"/><stop stop-opacity="1" stop-color="rgb(61.198425%, 64.66217%, 67.971802%)" offset="0.390625"/><stop stop-opacity="1" stop-color="rgb(60.995483%, 64.445496%, 67.735291%)" offset="0.40625"/><stop stop-opacity="1" stop-color="rgb(60.794067%, 64.228821%, 67.498779%)" offset="0.421875"/><stop stop-opacity="1" stop-color="rgb(60.592651%, 64.013672%, 67.262268%)" offset="0.4375"/><stop stop-opacity="1" stop-color="rgb(60.391235%, 63.796997%, 67.025757%)" offset="0.453125"/><stop stop-opacity="1" stop-color="rgb(60.188293%, 63.580322%, 66.789246%)" offset="0.46875"/><stop stop-opacity="1" stop-color="rgb(59.986877%, 63.365173%, 66.552734%)" offset="0.484375"/><stop stop-opacity="1" stop-color="rgb(59.785461%, 63.148499%, 66.316223%)" offset="0.492543"/><stop stop-opacity="1" stop-color="rgb(59.684753%, 63.040161%, 66.19873%)" offset="0.5"/><stop stop-opacity="1" stop-color="rgb(59.584045%, 62.931824%, 66.081238%)" offset="0.507457"/><stop stop-opacity="1" stop-color="rgb(59.483337%, 62.825012%, 65.963745%)" offset="0.515625"/><stop stop-opacity="1" stop-color="rgb(59.382629%, 62.716675%, 65.844727%)" offset="0.53125"/><stop stop-opacity="1" stop-color="rgb(59.179688%, 62.5%, 65.608215%)" offset="0.546875"/><stop stop-opacity="1" stop-color="rgb(58.978271%, 62.283325%, 65.371704%)" offset="0.5625"/><stop stop-opacity="1" stop-color="rgb(58.776855%, 62.068176%, 65.135193%)" offset="0.578125"/><stop stop-opacity="1" stop-color="rgb(58.575439%, 61.851501%, 64.898682%)" offset="0.59375"/><stop stop-opacity="1" stop-color="rgb(58.374023%, 61.636353%, 64.66217%)" offset="0.609375"/><stop stop-opacity="1" stop-color="rgb(58.171082%, 61.419678%, 64.425659%)" offset="0.625"/><stop stop-opacity="1" stop-color="rgb(57.969666%, 61.203003%, 64.190674%)" offset="0.640625"/><stop stop-opacity="1" stop-color="rgb(57.76825%, 60.987854%, 63.954163%)" offset="0.65625"/><stop stop-opacity="1" stop-color="rgb(57.566833%, 60.771179%, 63.717651%)" offset="0.671875"/><stop stop-opacity="1" stop-color="rgb(57.363892%, 60.554504%, 63.48114%)" offset="0.6875"/><stop stop-opacity="1" stop-color="rgb(57.162476%, 60.339355%, 63.244629%)" offset="0.703125"/><stop stop-opacity="1" stop-color="rgb(56.96106%, 60.122681%, 63.008118%)" offset="0.71875"/><stop stop-opacity="1" stop-color="rgb(56.759644%, 59.906006%, 62.771606%)" offset="0.734375"/><stop stop-opacity="1" stop-color="rgb(56.558228%, 59.690857%, 62.535095%)" offset="0.75"/><stop stop-opacity="1" stop-color="rgb(56.355286%, 59.474182%, 62.30011%)" offset="0.765625"/><stop stop-opacity="1" stop-color="rgb(56.176758%, 59.281921%, 62.091064%)" offset="0.78125"/><stop stop-opacity="1" stop-color="rgb(56.098938%, 59.199524%, 61.999512%)" offset="0.8125"/><stop stop-opacity="1" stop-color="rgb(56.098938%, 59.199524%, 61.999512%)" offset="0.875"/><stop stop-opacity="1" stop-color="rgb(56.098938%, 59.199524%, 61.999512%)" offset="1"/></linearGradient><clipPath id="c97d0afe70"><path d="M 110 145 L 129 145 L 129 163 L 110 163 Z M 110 145 " clip-rule="nonzero"/></clipPath><clipPath id="13ef956be6"><path d="M -23.300781 260.878906 L 67.488281 -29.769531 L 358.140625 61.019531 L 267.351562 351.667969 Z M -23.300781 260.878906 " clip-rule="nonzero"/></clipPath><clipPath id="5be314f218"><path d="M -23.300781 260.878906 L 67.488281 -29.769531 L 358.140625 61.019531 L 267.351562 351.667969 Z M -23.300781 260.878906 " clip-rule="nonzero"/></clipPath><clipPath id="6db6d1dd35"><path d="M -23.300781 260.878906 L 67.488281 -29.769531 L 358.140625 61.019531 L 267.351562 351.667969 Z M -23.300781 260.878906 " clip-rule="nonzero"/></clipPath><clipPath id="5402e3f2a0"><path d="M 181 109 L 199 109 L 199 126 L 181 126 Z M 181 109 " clip-rule="nonzero"/></clipPath><clipPath id="b59ad5fc30"><path d="M -23.300781 260.878906 L 67.488281 -29.769531 L 358.140625 61.019531 L 267.351562 351.667969 Z M -23.300781 260.878906 " clip-rule="nonzero"/></clipPath><clipPath id="24098adf64"><path d="M -23.300781 260.878906 L 67.488281 -29.769531 L 358.140625 61.019531 L 267.351562 351.667969 Z M -23.300781 260.878906 " clip-rule="nonzero"/></clipPath><clipPath id="e838ff133f"><path d="M -23.300781 260.878906 L 67.488281 -29.769531 L 358.140625 61.019531 L 267.351562 351.667969 Z M -23.300781 260.878906 " clip-rule="nonzero"/></clipPath><clipPath id="8c132a8cb2"><path d="M 80 22 L 176 22 L 176 156 L 80 156 Z M 80 22 " clip-rule="nonzero"/></clipPath><clipPath id="a84a3b1ac0"><path d="M -23.300781 260.878906 L 67.488281 -29.769531 L 358.140625 61.019531 L 267.351562 351.667969 Z M -23.300781 260.878906 " clip-rule="nonzero"/></clipPath><clipPath id="26ba11cada"><path d="M -23.300781 260.878906 L 67.488281 -29.769531 L 358.140625 61.019531 L 267.351562 351.667969 Z M -23.300781 260.878906 " clip-rule="nonzero"/></clipPath><clipPath id="aafade43c1"><path d="M -23.300781 260.878906 L 67.488281 -29.769531 L 358.140625 61.019531 L 267.351562 351.667969 Z M -23.300781 260.878906 " clip-rule="nonzero"/></clipPath><clipPath id="89be918129"><path d="M 82 26 L 174 26 L 174 152 L 82 152 Z M 82 26 " clip-rule="nonzero"/></clipPath><clipPath id="7964680121"><path d="M -23.300781 260.878906 L 67.488281 -29.769531 L 358.140625 61.019531 L 267.351562 351.667969 Z M -23.300781 260.878906 " clip-rule="nonzero"/></clipPath><clipPath id="f9154485d3"><path d="M -23.300781 260.878906 L 67.488281 -29.769531 L 358.140625 61.019531 L 267.351562 351.667969 Z M -23.300781 260.878906 " clip-rule="nonzero"/></clipPath><clipPath id="b17ea85242"><path d="M -23.300781 260.878906 L 67.488281 -29.769531 L 358.140625 61.019531 L 267.351562 351.667969 Z M -23.300781 260.878906 " clip-rule="nonzero"/></clipPath><clipPath id="b8c6f4256c"><path d="M 219 281 L 254 281 L 254 305 L 219 305 Z M 219 281 " clip-rule="nonzero"/></clipPath><clipPath id="7174383521"><path d="M -23.300781 260.878906 L 67.488281 -29.769531 L 358.140625 61.019531 L 267.351562 351.667969 Z M -23.300781 260.878906 " clip-rule="nonzero"/></clipPath><clipPath id="510d3c0e3f"><path d="M -23.300781 260.878906 L 67.488281 -29.769531 L 358.140625 61.019531 L 267.351562 351.667969 Z M -23.300781 260.878906 " clip-rule="nonzero"/></clipPath><clipPath id="1d48a31540"><path d="M -23.300781 260.878906 L 67.488281 -29.769531 L 358.140625 61.019531 L 267.351562 351.667969 Z M -23.300781 260.878906 " clip-rule="nonzero"/></clipPath><clipPath id="55c80339d9"><path d="M 221 284 L 254 284 L 254 305 L 221 305 Z M 221 284 " clip-rule="nonzero"/></clipPath><clipPath id="86050b68d8"><path d="M -23.300781 260.878906 L 67.488281 -29.769531 L 358.140625 61.019531 L 267.351562 351.667969 Z M -23.300781 260.878906 " clip-rule="nonzero"/></clipPath><clipPath id="5bd97dcf38"><path d="M -23.300781 260.878906 L 67.488281 -29.769531 L 358.140625 61.019531 L 267.351562 351.667969 Z M -23.300781 260.878906 " clip-rule="nonzero"/></clipPath><clipPath id="f98cf28fc9"><path d="M -23.300781 260.878906 L 67.488281 -29.769531 L 358.140625 61.019531 L 267.351562 351.667969 Z M -23.300781 260.878906 " clip-rule="nonzero"/></clipPath></defs><rect x="-37.5" width="450" fill="#ffffff" y="-37.499999" height="449.999989" fill-opacity="1"/><rect x="-37.5" width="450" fill="#ffffff" y="-37.499999" height="449.999989" fill-opacity="1"/><g clip-path="url(#e09307f8b1)"><g clip-path="url(#e0c4a29367)"><g clip-path="url(#9d7e2eef47)"><g clip-path="url(#937637d8bf)"><g clip-path="url(#849de52f7d)"><path fill="url(#edb728b6b7)" d="M 67.070312 304.296875 L 251.488281 361.902344 L 324.949219 126.726562 L 140.53125 69.121094 Z M 67.070312 304.296875 " fill-rule="nonzero"/></g></g></g></g></g><g clip-path="url(#4f40a62083)"><g clip-path="url(#828720b0cf)"><g clip-path="url(#773bd8a8fc)"><g clip-path="url(#ee9f1d16e8)"><path fill="#5c2415" d="M 184.796875 157.585938 L 154.765625 173.324219 L 146.894531 158.304688 L 176.929688 142.570312 Z M 192.667969 172.601562 L 162.632812 188.339844 L 170.5 203.359375 L 200.535156 187.621094 Z M 208.402344 202.636719 L 178.371094 218.375 L 186.238281 233.390625 L 216.273438 217.65625 Z M 224.140625 232.671875 L 194.105469 248.410156 L 201.976562 263.425781 L 232.007812 247.691406 Z M 239.878906 262.707031 L 209.84375 278.445312 L 217.710938 293.460938 L 247.746094 277.722656 Z M 239.878906 262.707031 " fill-opacity="1" fill-rule="nonzero"/></g></g></g></g><g clip-path="url(#39bc687176)"><g clip-path="url(#9db1ec0885)"><g clip-path="url(#425d2023a2)"><g clip-path="url(#7d51c4483b)"><path fill="#64717c" d="M 107.90625 19.234375 L 84.789062 31.347656 C 80.113281 33.796875 78.308594 39.570312 80.757812 44.246094 L 89.433594 60.8125 L 129.480469 39.832031 L 120.796875 23.261719 C 118.347656 18.585938 112.582031 16.785156 107.90625 19.234375 Z M 107.90625 19.234375 " fill-opacity="1" fill-rule="nonzero"/></g></g></g></g><g clip-path="url(#3858db8e96)"><g clip-path="url(#1f3ae5cbeb)"><g clip-path="url(#a879c22312)"><g clip-path="url(#1f8c98835b)"><g clip-path="url(#e50e14bd57)"><path fill="url(#8ae37e04c1)" d="M 203.65625 339.105469 L 271.9375 360.433594 L 293.265625 292.15625 L 224.984375 270.828125 Z M 203.65625 339.105469 " fill-rule="nonzero"/></g></g></g></g></g><g clip-path="url(#b53a790fd4)"><g clip-path="url(#de166a77da)"><g clip-path="url(#4d0124b4fe)"><g clip-path="url(#6792eec676)"><path fill="#64717c" d="M 164.277344 8.835938 L 44.140625 71.785156 L 26.648438 103.789062 C 25.363281 106.132812 25.34375 108.964844 26.582031 111.328125 L 54.082031 163.820312 C 55.320312 166.183594 57.664062 167.777344 60.320312 168.054688 L 96.597656 171.898438 L 216.734375 108.953125 L 234.226562 76.945312 C 235.511719 74.601562 235.535156 71.769531 234.296875 69.40625 L 206.792969 16.917969 C 205.554688 14.554688 203.214844 12.960938 200.554688 12.683594 Z M 164.277344 8.835938 " fill-opacity="1" fill-rule="nonzero"/></g></g></g></g><g clip-path="url(#87d077c0c7)"><g clip-path="url(#d7022225ff)"><g clip-path="url(#ecd7333205)"><g clip-path="url(#c75ade1e1f)"><g clip-path="url(#56a36e16b6)"><path fill="url(#801b11fb36)" d="M -2.265625 157.402344 L 201.394531 221.019531 L 263.144531 23.332031 L 59.484375 -40.285156 Z M -2.265625 157.402344 " fill-rule="nonzero"/></g></g></g></g></g><g clip-path="url(#c97d0afe70)"><g clip-path="url(#13ef956be6)"><g clip-path="url(#5be314f218)"><g clip-path="url(#6db6d1dd35)"><path fill="#64717c" d="M 126.113281 150.054688 L 128.734375 155.0625 L 114.519531 162.511719 L 111.894531 157.503906 C 109.851562 153.601562 111.375 148.71875 115.28125 146.671875 C 119.183594 144.625 124.066406 146.152344 126.113281 150.054688 Z M 126.113281 150.054688 " fill-opacity="1" fill-rule="nonzero"/></g></g></g></g><g clip-path="url(#5402e3f2a0)"><g clip-path="url(#b59ad5fc30)"><g clip-path="url(#24098adf64)"><g clip-path="url(#e838ff133f)"><path fill="#64717c" d="M 196.191406 113.335938 L 198.816406 118.339844 L 184.597656 125.789062 L 181.976562 120.785156 C 179.929688 116.878906 181.457031 111.996094 185.359375 109.953125 C 189.265625 107.90625 194.148438 109.429688 196.191406 113.335938 Z M 196.191406 113.335938 " fill-opacity="1" fill-rule="nonzero"/></g></g></g></g><g clip-path="url(#8c132a8cb2)"><g clip-path="url(#a84a3b1ac0)"><g clip-path="url(#26ba11cada)"><g clip-path="url(#aafade43c1)"><path fill="#000000" d="M 80.5625 43.640625 C 80.566406 43.894531 80.671875 44.09375 80.777344 44.292969 L 82.351562 47.296875 L 84.1875 50.800781 L 124.234375 29.820312 L 122.398438 26.316406 L 120.824219 23.3125 C 120.71875 23.109375 120.613281 22.910156 120.410156 22.761719 Z M 143.484375 151.796875 L 145.375 155.402344 L 175.410156 139.664062 L 173.519531 136.0625 L 171.683594 132.558594 L 141.648438 148.292969 Z M 143.484375 151.796875 " fill-opacity="0.05" fill-rule="nonzero"/></g></g></g></g><g clip-path="url(#89be918129)"><g clip-path="url(#7964680121)"><g clip-path="url(#f9154485d3)"><g clip-path="url(#b17ea85242)"><path fill="#000000" d="M 82.351562 47.296875 L 84.1875 50.800781 L 124.234375 29.820312 L 122.398438 26.316406 Z M 143.484375 151.796875 L 173.519531 136.0625 L 171.683594 132.558594 L 141.648438 148.292969 Z M 143.484375 151.796875 " fill-opacity="0.07" fill-rule="nonzero"/></g></g></g></g><g clip-path="url(#b8c6f4256c)"><g clip-path="url(#7174383521)"><g clip-path="url(#510d3c0e3f)"><g clip-path="url(#1d48a31540)"><path fill="#000000" d="M 245.941406 282.433594 L 222.613281 294.65625 C 221.511719 295.234375 220.441406 295.988281 219.441406 296.765625 L 223.324219 304.171875 C 224.140625 303.171875 225.160156 302.320312 226.363281 301.6875 L 249.589844 289.519531 C 250.789062 288.890625 252.074219 288.535156 253.359375 288.4375 L 251.417969 284.730469 L 249.476562 281.027344 C 248.296875 281.328125 247.066406 281.78125 245.941406 282.433594 Z M 245.941406 282.433594 " fill-opacity="0.05" fill-rule="nonzero"/></g></g></g></g><g clip-path="url(#55c80339d9)"><g clip-path="url(#86050b68d8)"><g clip-path="url(#5bd97dcf38)"><g clip-path="url(#f98cf28fc9)"><path fill="#000000" d="M 247.777344 285.9375 L 224.449219 298.160156 C 223.324219 298.816406 222.25 299.566406 221.382812 300.46875 L 223.324219 304.171875 C 224.140625 303.171875 225.160156 302.320312 226.363281 301.6875 L 249.589844 289.519531 C 250.789062 288.890625 252.074219 288.535156 253.359375 288.4375 L 251.417969 284.730469 C 250.183594 284.933594 248.953125 285.386719 247.777344 285.9375 Z M 247.777344 285.9375 " fill-opacity="0.07" fill-rule="nonzero"/></g></g></g></g></svg>